<svg xmlns="http://www.w3.org/2000/svg" viewBox="0 0 295.25 460.64"><defs><style>.cls-1,.cls-2,.cls-3,.cls-4{fill:none;stroke-linecap:round;stroke-linejoin:round;stroke-width:14.87px;}.cls-1{stroke:#242c5d;}.cls-2{stroke:#197bbf;}.cls-3{stroke:#0694d2;}.cls-4{stroke:#81cdf2;}</style></defs><title>Asset 4</title><g id="Layer_2" data-name="Layer 2"><g id="Layer_1-2" data-name="Layer 1"><path class="cls-1" d="M147.81,35.89h.26A96.82,96.82,0,0,1,216.75,7.44h2.38a96.8,96.8,0,0,1,68.68,28.45"/><path class="cls-1" d="M7.44,35.89A96.78,96.78,0,0,1,76.11,7.44h3a96.8,96.8,0,0,1,68.68,28.45"/><path class="cls-2" d="M285.62,257.67V102.83a68.73,68.73,0,0,0-68.73-68.74h-.34a68.73,68.73,0,0,0-68.74,68.74l.06-.2V223.27"/><path class="cls-2" d="M10.4,399.86v-297A68.73,68.73,0,0,1,79.13,34.09V33.9a68.74,68.74,0,0,1,68.74,68.73l-.25-6.29V217"/><path class="cls-3" d="M176.24,223.27V102.79a40.65,40.65,0,0,1,40.65-40.65h2.24a40.65,40.65,0,0,1,40.65,40.65V453.2"/><path class="cls-3" d="M38.48,298.53V102.79a40.65,40.65,0,0,1,81.3,0V223.27"/><path class="cls-4" d="M202.62,223.27V102.65a13.57,13.57,0,0,1,13.56-13.56h-.05a13.56,13.56,0,0,1,13.56,13.56v25.82"/><path class="cls-4" d="M65.57,161.54V102.65a13.56,13.56,0,0,1,27.12,0V223.27"/></g></g></svg>