<svg xmlns="http://www.w3.org/2000/svg" xmlns:xlink="http://www.w3.org/1999/xlink" viewBox="0 0 203.62 56.14"><defs><style>.a,.b{fill:none;}.a{clip-rule:evenodd;}.c{clip-path:url(#a);}.d{clip-path:url(#b);}.e{fill:#242c5d;}.f{clip-path:url(#c);}.g{clip-path:url(#e);}.h{clip-path:url(#g);}.i{clip-path:url(#i);}.j{clip-path:url(#k);}.k{clip-path:url(#m);}.l{clip-path:url(#o);}.m{clip-path:url(#q);}.n{clip-path:url(#s);}.o{clip-path:url(#u);}.p{clip-path:url(#w);}.q{clip-path:url(#y);}.r{clip-path:url(#aa);}.s{clip-path:url(#ac);}.t{clip-path:url(#ae);}.u{clip-path:url(#ag);}</style><clipPath id="a"><path class="a" d="M61.67,38.28V56.14h5.74V42.39H72V37.81H67.41c0-.7.39-3.47,3.33-3.47H72V29.86l-3.14,0c-4.32,0-7.14,3.12-7.14,8.46"/></clipPath><clipPath id="b"><rect class="b" x="-150" y="-55" width="8640" height="1080"/></clipPath><clipPath id="c"><path class="a" d="M83,51.1a4.91,4.91,0,1,1,4.7-4.88A4.82,4.82,0,0,1,83,51.1m-.11-15.36a10.39,10.39,0,0,0-7.33,3.11,10.15,10.15,0,0,0-3,7.29,10.39,10.39,0,0,0,2.93,7.34A9.84,9.84,0,0,0,83,56.66a10.29,10.29,0,0,0,7.55-3.11,10.13,10.13,0,0,0,3-7.48A10.48,10.48,0,0,0,82.93,35.74"/></clipPath><clipPath id="e"><path class="a" d="M108.41,47c0,2.67-1.19,4-3.48,4s-2.85-1.26-2.85-4V36.25H96.19V49.36c0,4.56,2.7,7.15,6.81,7.15a6.17,6.17,0,0,0,5.71-3v2.66h5.44V36.25h-5.74Z"/></clipPath><clipPath id="g"><path class="a" d="M129.22,35.88a6.18,6.18,0,0,0-5.7,3l.07-2.67H118V56.14h5.74V45.36c0-2.66,1.22-4,3.52-4s2.85,1.26,2.85,4V56.14H136V43c0-4.55-2.67-7.15-6.78-7.15"/></clipPath><clipPath id="i"><polygon class="a" points="146.59 29.81 140.66 29.81 140.66 36.25 138.15 36.25 138.15 40.88 140.66 40.88 140.66 56.14 146.59 56.14 146.59 40.88 149.22 40.88 149.22 36.25 146.59 36.25 146.59 29.81"/></clipPath><clipPath id="k"><path class="a" d="M161.22,51a4.91,4.91,0,1,1,4.63-4.82A4.7,4.7,0,0,1,161.22,51Zm4.41-12.48A6.66,6.66,0,0,0,160,36a9.23,9.23,0,0,0-6.63,2.74,10.37,10.37,0,0,0,.3,15.22,9,9,0,0,0,6.22,2.33,7.72,7.72,0,0,0,5.89-2.33v2.22h5.67V36.25h-5.85Z"/></clipPath><clipPath id="m"><rect class="b" x="175.66" y="36.25" width="5.81" height="19.89"/></clipPath><clipPath id="o"><path class="a" d="M196.84,35.88a6.18,6.18,0,0,0-5.7,3l.07-2.67h-5.55V56.14h5.74V45.36c0-2.66,1.22-4,3.52-4s2.85,1.26,2.85,4V56.14h5.85V43c0-4.55-2.67-7.15-6.78-7.15"/></clipPath><clipPath id="q"><path class="a" d="M178.57,28a3.21,3.21,0,1,0,3.21,3.21A3.21,3.21,0,0,0,178.57,28"/></clipPath><clipPath id="s"><path class="a" d="M29.29,56.14v-5.7A20.83,20.83,0,0,1,50,29.28a1.22,1.22,0,1,0,0-2.43,20.73,20.73,0,0,0-6.09.91V23.59c0-3.59,2.5-6.51,6.09-6.51a1.22,1.22,0,1,0,0-2.43,8.61,8.61,0,0,0-8.53,8.94v5a24,24,0,0,0-2.45,1.18v-6.2A11.06,11.06,0,0,1,50,12.2a1.22,1.22,0,0,0,0-2.44A13.5,13.5,0,0,0,36.62,23.59v7.75a22.64,22.64,0,0,0-2.45,2V23.59A15.94,15.94,0,0,1,50,7.32a1.22,1.22,0,0,0,0-2.44A18.38,18.38,0,0,0,31.74,23.59v12.5A23.63,23.63,0,0,0,29.29,40V23.59A20.82,20.82,0,0,1,50,2.44,1.22,1.22,0,0,0,50,0,23.27,23.27,0,0,0,26.85,23.59V56.14Z"/></clipPath><clipPath id="u"><path class="a" d="M34.16,56.14v-5.7A15.94,15.94,0,0,1,50,34.17a1.22,1.22,0,0,0,0-2.44,18.38,18.38,0,0,0-18.3,18.71v5.7Z"/></clipPath><clipPath id="w"><path class="a" d="M39,56.14v-5.7A11.05,11.05,0,0,1,50,39.05a1.22,1.22,0,0,0,0-2.44A13.5,13.5,0,0,0,36.6,50.44v5.7Z"/></clipPath><clipPath id="y"><path class="a" d="M43.92,56.14v-5.7c0-3.59,2.51-6.51,6.1-6.51a1.22,1.22,0,0,0,0-2.43c-4.94,0-8.53,4-8.53,8.94v5.7Z"/></clipPath><clipPath id="aa"><path class="a" d="M24.41,56.14V23.59A23.28,23.28,0,0,0,1.22,0a1.22,1.22,0,0,0,0,2.44A20.85,20.85,0,0,1,22,23.59V40a23.63,23.63,0,0,0-2.45-3.92V23.59A18.4,18.4,0,0,0,1.22,4.88a1.22,1.22,0,0,0,0,2.44A16,16,0,0,1,17.09,23.59v9.79a23,23,0,0,0-2.46-2.05.88.88,0,0,0,0-.17V23.59A13.52,13.52,0,0,0,1.22,9.76a1.22,1.22,0,1,0,0,2.44,11.07,11.07,0,0,1,11,11.39v6.2a23,23,0,0,0-2.45-1.18v-5a8.62,8.62,0,0,0-8.54-8.94,1.22,1.22,0,1,0,0,2.43,6.19,6.19,0,0,1,6.11,6.51v4.17a20.91,20.91,0,0,0-6.11-.91,1.22,1.22,0,1,0,0,2.43A20.86,20.86,0,0,1,22,50.44v5.7Z"/></clipPath><clipPath id="ac"><path class="a" d="M19.53,56.14v-5.7A18.4,18.4,0,0,0,1.22,31.73a1.22,1.22,0,1,0,0,2.44A16,16,0,0,1,17.09,50.44v5.7Z"/></clipPath><clipPath id="ae"><path class="a" d="M14.64,56.14v-5.7A13.51,13.51,0,0,0,1.21,36.61a1.22,1.22,0,0,0,0,2.44,11.07,11.07,0,0,1,11,11.39v5.7Z"/></clipPath><clipPath id="ag"><path class="a" d="M9.76,56.14v-5.7A8.62,8.62,0,0,0,1.22,41.5a1.22,1.22,0,1,0,0,2.43,6.19,6.19,0,0,1,6.11,6.51v5.7Z"/></clipPath></defs><title>logo</title><g class="c"><g class="d"><rect class="e" x="56.67" y="24.82" width="20.28" height="36.32"/></g></g><g class="f"><g class="d"><rect class="e" x="67.56" y="30.74" width="31" height="30.92"/></g></g><g class="g"><g class="d"><rect class="e" x="91.19" y="31.25" width="27.96" height="30.26"/></g></g><g class="h"><g class="d"><rect class="e" x="113.04" y="30.88" width="27.96" height="30.26"/></g></g><g class="i"><g class="d"><rect class="e" x="133.15" y="24.81" width="21.07" height="36.33"/></g></g><g class="j"><g class="d"><rect class="e" x="145.22" y="30.96" width="31.26" height="30.29"/></g></g><g class="k"><g class="d"><rect class="e" x="170.66" y="31.25" width="15.81" height="29.89"/></g></g><g class="l"><g class="d"><rect class="e" x="180.66" y="30.88" width="27.96" height="30.26"/></g></g><g class="m"><g class="d"><rect class="e" x="170.36" y="22.96" width="16.42" height="16.42"/></g></g><g class="n"><g class="d"><rect class="e" x="21.85" y="-5" width="34.4" height="66.14"/></g></g><g class="o"><g class="d"><rect class="e" x="26.72" y="26.73" width="29.51" height="34.41"/></g></g><g class="p"><g class="d"><rect class="e" x="31.6" y="31.61" width="24.63" height="29.53"/></g></g><g class="q"><g class="d"><rect class="e" x="36.49" y="36.5" width="19.75" height="24.65"/></g></g><g class="r"><g class="d"><rect class="e" x="-5" y="-5" width="34.41" height="66.14"/></g></g><g class="s"><g class="d"><rect class="e" x="-5" y="26.73" width="29.53" height="34.41"/></g></g><g class="t"><g class="d"><rect class="e" x="-5" y="31.61" width="24.65" height="29.53"/></g></g><g class="u"><g class="d"><rect class="e" x="-5" y="36.5" width="19.76" height="24.65"/></g></g></svg>