<?xml version="1.0" encoding="UTF-8"?>
<svg width="295px" height="274px" viewBox="0 0 295 274" version="1.1" xmlns="http://www.w3.org/2000/svg" xmlns:xlink="http://www.w3.org/1999/xlink">
    <!-- Generator: Sketch 60.1 (88133) - https://sketch.com -->
    <title>Group 67</title>
    <desc>Created with Sketch.</desc>
    <defs>
        <polygon id="path-1" points="0 0.3272 28.9609 0.3272 28.9609 32.9102 0 32.9102"></polygon>
    </defs>
    <g id="Page-1" stroke="none" stroke-width="1" fill="none" fill-rule="evenodd">
        <g id="Artboard-Copy-3" transform="translate(-1817.000000, -419.000000)">
            <g id="Group-67" transform="translate(1817.000000, 419.000000)">
                <path d="M65.3513,279.5503 C67.6213,279.5503 69.4603,135.4523 69.4603,133.1843 L69.4603,64.7953 C69.4603,29.2223 40.5203,0.2813 4.9483,0.2813 C2.6783,0.2813 0.8383,2.1213 0.8383,4.3903 C0.8383,6.6593 2.6783,8.5003 4.9483,8.5003 C35.9893,8.5003 61.2433,33.7533 61.2433,64.7953 L61.2433,133.1843 C61.2433,135.4523 63.0813,279.5503 65.3513,279.5503" id="Fill-2" fill="#252B5D"></path>
                <path d="M52.1716,91.5229 C54.4416,91.5229 56.2796,89.6829 56.2796,87.4139 L56.2796,64.7949 C56.2796,36.4889 33.2516,13.4609 4.9476,13.4609 C2.6786,13.4609 0.8386,15.2999 0.8386,17.5699 C0.8386,19.8389 2.6786,21.6789 4.9476,21.6789 C28.7206,21.6789 48.0636,41.0209 48.0636,64.7949 L48.0636,87.4139 C48.0636,89.6829 49.9016,91.5229 52.1716,91.5229" id="Fill-4" fill="#167BBF"></path>
                <path d="M38.992,79.2847 C41.262,79.2847 43.101,77.4447 43.101,75.1757 L43.101,64.7947 C43.101,43.7567 25.986,26.6407 4.948,26.6407 C2.679,26.6407 0.839,28.4807 0.839,30.7507 C0.839,33.0187 2.679,34.8587 4.948,34.8587 C21.454,34.8587 34.883,48.2877 34.883,64.7947 L34.883,75.1757 C34.883,77.4447 36.721,79.2847 38.992,79.2847" id="Fill-6" fill="#0094D3"></path>
                <g id="Group-10" transform="translate(0.000000, 40.000000)">
                    <mask id="mask-2" fill="white">
                        <use xlink:href="#path-1"></use>
                    </mask>
                    <g id="Clip-9"></g>
                    <path d="M24.8689,32.9102 C27.1289,32.9102 28.9609,31.0782 28.9609,28.8192 L28.9609,25.1962 C28.9609,11.4822 17.8039,0.3272 4.0919,0.3272 C1.8319,0.3272 -0.0001,2.1582 -0.0001,4.4172 C-0.0001,6.6782 1.8319,8.5092 4.0919,8.5092 C13.2919,8.5092 20.7759,15.9952 20.7759,25.1962 L20.7759,28.8192 C20.7759,31.0782 22.6079,32.9102 24.8689,32.9102" id="Fill-8" fill="#80CEF3" mask="url(#mask-2)"></path>
                </g>
                <path d="M69.4607,281.6646 L69.4607,125.0776 C69.4607,89.5046 40.5207,60.5646 4.9477,60.5646 C2.6777,60.5646 0.8387,62.4046 0.8387,64.6736 C0.8387,66.9426 2.6777,68.7826 4.9477,68.7826 C35.9887,68.7826 61.2427,94.0366 61.2427,125.0776 L61.2427,281.6646 L69.4607,281.6646 Z" id="Fill-11" fill="#252B5D"></path>
                <path d="M56.28,281.6646 L56.28,125.0776 C56.28,96.7726 33.252,73.7446 4.948,73.7446 C2.678,73.7446 0.839,75.5836 0.839,77.8526 C0.839,80.1226 2.678,81.9616 4.948,81.9616 C28.721,81.9616 48.062,101.3036 48.062,125.0776 L48.062,281.6646 L56.28,281.6646 Z" id="Fill-13" fill="#167BBF"></path>
                <path d="M43.1013,281.6646 L43.1013,125.0776 C43.1013,104.0396 25.9853,86.9236 4.9483,86.9236 C2.6783,86.9236 0.8383,88.7636 0.8383,91.0326 C0.8383,93.3016 2.6783,95.1416 4.9483,95.1416 C21.4543,95.1416 34.8823,108.5716 34.8823,125.0776 L34.8823,281.6646 L43.1013,281.6646 Z" id="Fill-15" fill="#0094D3"></path>
                <path d="M29.9207,281.6646 L29.9207,125.0776 C29.9207,111.3066 18.7177,100.1026 4.9477,100.1026 C2.6787,100.1026 0.8387,101.9426 0.8387,104.2116 C0.8387,106.4816 2.6787,108.3216 4.9477,108.3216 C14.1867,108.3216 21.7027,115.8376 21.7027,125.0776 L21.7027,281.6646 L29.9207,281.6646 Z" id="Fill-17" fill="#80CEF3"></path>
                <path d="M78.5691,280.5503 C76.2991,280.5503 74.4611,135.4523 74.4611,133.1843 L74.4611,64.7953 C74.4611,29.2223 103.4011,0.2813 138.9721,0.2813 C141.2431,0.2813 143.0821,2.1213 143.0821,4.3903 C143.0821,6.6593 141.2431,8.5003 138.9721,8.5003 C107.9311,8.5003 82.6771,33.7533 82.6771,64.7953 L82.6771,133.1843 C82.6771,135.4523 80.8391,280.5503 78.5691,280.5503" id="Fill-19" fill="#252B5D"></path>
                <path d="M91.7488,91.5229 C89.4788,91.5229 87.6408,89.6829 87.6408,87.4139 L87.6408,64.7949 C87.6408,36.4889 110.6688,13.4609 138.9728,13.4609 C141.2428,13.4609 143.0818,15.2999 143.0818,17.5699 C143.0818,19.8389 141.2428,21.6789 138.9728,21.6789 C115.1998,21.6789 95.8578,41.0209 95.8578,64.7949 L95.8578,87.4139 C95.8578,89.6829 94.0198,91.5229 91.7488,91.5229" id="Fill-21" fill="#167BBF"></path>
                <path d="M104.9285,79.2847 C102.6595,79.2847 100.8205,77.4447 100.8205,75.1757 L100.8205,64.7947 C100.8205,43.7567 117.9355,26.6407 138.9725,26.6407 C141.2425,26.6407 143.0815,28.4807 143.0815,30.7507 C143.0815,33.0187 141.2425,34.8587 138.9725,34.8587 C122.4665,34.8587 109.0375,48.2877 109.0375,64.7947 L109.0375,75.1757 C109.0375,77.4447 107.1995,79.2847 104.9285,79.2847" id="Fill-23" fill="#0094D3"></path>
                <path d="M118.0916,72.9102 C115.8316,72.9102 113.9996,71.0782 113.9996,68.8192 L113.9996,65.1962 C113.9996,51.4822 125.1556,40.3272 138.8676,40.3272 C141.1286,40.3272 142.9596,42.1582 142.9596,44.4172 C142.9596,46.6782 141.1286,48.5092 138.8676,48.5092 C129.6686,48.5092 122.1836,55.9952 122.1836,65.1962 L122.1836,68.8192 C122.1836,71.0782 120.3516,72.9102 118.0916,72.9102" id="Fill-25" fill="#80CEF3"></path>
                <path d="M74.4607,281.6646 L74.4607,125.0776 C74.4607,89.5046 103.3997,60.5646 138.9727,60.5646 C141.2427,60.5646 143.0817,62.4046 143.0817,64.6736 C143.0817,66.9426 141.2427,68.7826 138.9727,68.7826 C107.9317,68.7826 82.6787,94.0366 82.6787,125.0776 L82.6787,281.6646 L74.4607,281.6646 Z" id="Fill-27" fill="#252B5D"></path>
                <path d="M87.6404,281.6646 L87.6404,125.0776 C87.6404,96.7726 110.6684,73.7446 138.9724,73.7446 C141.2434,73.7446 143.0814,75.5836 143.0814,77.8526 C143.0814,80.1226 141.2434,81.9616 138.9724,81.9616 C115.2004,81.9616 95.8584,101.3036 95.8584,125.0776 L95.8584,281.6646 L87.6404,281.6646 Z" id="Fill-29" fill="#167BBF"></path>
                <path d="M101.2859,281.7642 L100.5369,125.1792 C100.4359,104.1412 117.4699,86.9442 138.5069,86.8431507 C140.7769,86.8322 142.6249,88.6632 142.635941,90.9322 C142.6459,93.2022 140.8159,95.0512 138.5469,95.0612 C122.0409,95.1402 108.6769,108.6342 108.7559,125.1392 L109.5039,281.7252 L101.2859,281.7642 Z" id="Fill-31" fill="#0094D3"></path>
                <path d="M113.9998,281.1592 L113.9998,125.2262 C113.9998,111.5132 125.1558,100.3562 138.8678,100.3562 C141.1288,100.3562 142.9608,102.1882 142.9608,104.4482 C142.9608,106.7082 141.1288,108.5402 138.8678,108.5402 C129.6688,108.5402 122.1848,116.0252 122.1848,125.2262 L122.1848,281.1592 L113.9998,281.1592 Z" id="Fill-33" fill="#80CEF3"></path>
                <path d="M216.906,279.5503 C219.177,279.5503 221.015,135.4523 221.015,133.1843 L221.015,64.7953 C221.015,29.2223 192.075,0.2813 156.504,0.2813 C154.233,0.2813 152.394,2.1213 152.394,4.3903 C152.394,6.6593 154.233,8.5003 156.504,8.5003 C187.545,8.5003 212.798,33.7533 212.798,64.7953 L212.798,133.1843 C212.798,135.4523 214.637,279.5503 216.906,279.5503" id="Fill-35" fill="#252B5D"></path>
                <path d="M203.7273,91.5229 C205.9973,91.5229 207.8353,89.6829 207.8353,87.4139 L207.8353,64.7949 C207.8353,36.4889 184.8073,13.4609 156.5033,13.4609 C154.2333,13.4609 152.3943,15.2999 152.3943,17.5699 C152.3943,19.8389 154.2333,21.6789 156.5033,21.6789 C180.2763,21.6789 199.6183,41.0209 199.6183,64.7949 L199.6183,87.4139 C199.6183,89.6829 201.4563,91.5229 203.7273,91.5229" id="Fill-37" fill="#167BBF"></path>
                <path d="M190.5466,79.2847 C192.8166,79.2847 194.6556,77.4447 194.6556,75.1757 L194.6556,64.7947 C194.6556,43.7567 177.5406,26.6407 156.5036,26.6407 C154.2336,26.6407 152.3946,28.4807 152.3946,30.7507 C152.3946,33.0187 154.2336,34.8587 156.5036,34.8587 C173.0096,34.8587 186.4386,48.2877 186.4386,64.7947 L186.4386,75.1757 C186.4386,77.4447 188.2766,79.2847 190.5466,79.2847" id="Fill-39" fill="#0094D3"></path>
                <path d="M176.4236,72.9102 C178.6836,72.9102 180.5156,71.0782 180.5156,68.8192 L180.5156,65.1962 C180.5156,51.4822 169.3596,40.3272 155.6476,40.3272 C153.3866,40.3272 151.5556,42.1582 151.5556,44.4172 C151.5556,46.6782 153.3866,48.5092 155.6476,48.5092 C164.8466,48.5092 172.3316,55.9952 172.3316,65.1962 L172.3316,68.8192 C172.3316,71.0782 174.1636,72.9102 176.4236,72.9102" id="Fill-41" fill="#80CEF3"></path>
                <path d="M221.0154,281.6646 L221.0154,125.0776 C221.0154,89.5046 192.0764,60.5646 156.5024,60.5646 C154.2334,60.5646 152.3944,62.4046 152.3944,64.6736 C152.3944,66.9426 154.2334,68.7826 156.5024,68.7826 C187.5444,68.7826 212.7974,94.0366 212.7974,125.0776 L212.7974,281.6646 L221.0154,281.6646 Z" id="Fill-43" fill="#252B5D"></path>
                <path d="M207.8357,281.6646 L207.8357,125.0776 C207.8357,96.7726 184.8077,73.7446 156.5037,73.7446 C154.2327,73.7446 152.3947,75.5836 152.3947,77.8526 C152.3947,80.1226 154.2327,81.9616 156.5037,81.9616 C180.2757,81.9616 199.6177,101.3036 199.6177,125.0776 L199.6177,281.6646 L207.8357,281.6646 Z" id="Fill-45" fill="#167BBF"></path>
                <path d="M194.656,281.6646 L194.656,125.0776 C194.656,104.0396 177.541,86.9236 156.503,86.9236 C154.233,86.9236 152.394,88.7636 152.394,91.0326 C152.394,93.3016 154.233,95.1416 156.503,95.1416 C173.01,95.1416 186.437,108.5716 186.437,125.0776 L186.437,281.6646 L194.656,281.6646 Z" id="Fill-47" fill="#0094D3"></path>
                <path d="M181.4763,281.6646 L181.4763,125.0776 C181.4763,111.3066 170.2733,100.1026 156.5033,100.1026 C154.2333,100.1026 152.3943,101.9426 152.3943,104.2116 C152.3943,106.4816 154.2333,108.3216 156.5033,108.3216 C165.7413,108.3216 173.2573,115.8376 173.2573,125.0776 L173.2573,281.6646 L181.4763,281.6646 Z" id="Fill-49" fill="#80CEF3"></path>
                <path d="M230.1248,280.5503 C227.8538,280.5503 226.0158,135.4523 226.0158,133.1843 L226.0158,64.7953 C226.0158,29.2223 254.9558,0.2813 290.5278,0.2813 C292.7978,0.2813 294.6378,2.1213 294.6378,4.3903 C294.6378,6.6593 292.7978,8.5003 290.5278,8.5003 C259.4868,8.5003 234.2328,33.7533 234.2328,64.7953 L234.2328,133.1843 C234.2328,135.4523 232.3948,280.5503 230.1248,280.5503" id="Fill-51" fill="#252B5D"></path>
                <path d="M243.3045,91.5229 C241.0345,91.5229 239.1965,89.6829 239.1965,87.4139 L239.1965,64.7949 C239.1965,36.4889 262.2245,13.4609 290.5285,13.4609 C292.7975,13.4609 294.6375,15.2999 294.6375,17.5699 C294.6375,19.8389 292.7975,21.6789 290.5285,21.6789 C266.7555,21.6789 247.4125,41.0209 247.4125,64.7949 L247.4125,87.4139 C247.4125,89.6829 245.5745,91.5229 243.3045,91.5229" id="Fill-53" fill="#167BBF"></path>
                <path d="M256.4842,79.2847 C254.2142,79.2847 252.3752,77.4447 252.3752,75.1757 L252.3752,64.7947 C252.3752,43.7567 269.4902,26.6407 290.5282,26.6407 C292.7972,26.6407 294.6372,28.4807 294.6372,30.7507 C294.6372,33.0187 292.7972,34.8587 290.5282,34.8587 C274.0222,34.8587 260.5932,48.2877 260.5932,64.7947 L260.5932,75.1757 C260.5932,77.4447 258.7542,79.2847 256.4842,79.2847" id="Fill-55" fill="#0094D3"></path>
                <path d="M269.6472,72.9102 C267.3872,72.9102 265.5542,71.0782 265.5542,68.8192 L265.5542,65.1962 C265.5542,51.4822 276.7112,40.3272 290.4232,40.3272 C292.6842,40.3272 294.5152,42.1582 294.5152,44.4172 C294.5152,46.6782 292.6842,48.5092 290.4232,48.5092 C281.2242,48.5092 273.7392,55.9952 273.7392,65.1962 L273.7392,68.8192 C273.7392,71.0782 271.9072,72.9102 269.6472,72.9102" id="Fill-57" fill="#80CEF3"></path>
                <path d="M226.0154,281.6646 L226.0154,125.0776 C226.0154,89.5046 254.9544,60.5646 290.5284,60.5646 C292.7974,60.5646 294.6374,62.4046 294.6374,64.6736 C294.6374,66.9426 292.7974,68.7826 290.5284,68.7826 C259.4874,68.7826 234.2334,94.0366 234.2334,125.0776 L234.2334,281.6646 L226.0154,281.6646 Z" id="Fill-59" fill="#252B5D"></path>
                <path d="M239.1961,281.6646 L239.1961,125.0776 C239.1961,96.7726 262.2241,73.7446 290.5281,73.7446 C292.7981,73.7446 294.6371,75.5836 294.6371,77.8526 C294.6371,80.1226 292.7981,81.9616 290.5281,81.9616 C266.7551,81.9616 247.4131,101.3036 247.4131,125.0776 L247.4131,281.6646 L239.1961,281.6646 Z" id="Fill-61" fill="#167BBF"></path>
                <path d="M252.8406,281.7642 L252.0926,125.1792 C251.9916,104.1412 269.0256,86.9442 290.0626,86.8431507 C292.3316,86.8322 294.1806,88.6632 294.191641,90.9322 C294.2016,93.2022 292.3716,95.0512 290.1016,95.0612 C273.5956,95.1402 260.2316,108.6342 260.3106,125.1392 L261.0596,281.7252 L252.8406,281.7642 Z" id="Fill-63" fill="#0094D3"></path>
                <path d="M265.5555,281.1592 L265.5555,125.2262 C265.5555,111.5132 276.7115,100.3562 290.4235,100.3562 C292.6845,100.3562 294.5155,102.1882 294.5155,104.4482 C294.5155,106.7082 292.6845,108.5402 290.4235,108.5402 C281.2245,108.5402 273.7395,116.0252 273.7395,125.2262 L273.7395,281.1592 L265.5555,281.1592 Z" id="Fill-65" fill="#80CEF3"></path>
            </g>
        </g>
    </g>
</svg>